<?xml version="1.0" encoding="UTF-8"?>
<svg version="1.1" xmlns="http://www.w3.org/2000/svg" width="1200" height="840">
<path d="M0 0 C396 0 792 0 1200 0 C1200 277.2 1200 554.4 1200 840 C804 840 408 840 0 840 C0 562.8 0 285.6 0 0 Z " fill="#00943F" transform="translate(0,0)"/>
<path d="M0 0 C3.46712503 1.08001725 6.38124807 2.73720199 9.421875 4.6953125 C10.26919189 5.23784668 11.11650879 5.78038086 11.98950195 6.33935547 C12.90046631 6.92861816 13.81143066 7.51788086 14.75 8.125 C16.19669067 9.0533667 16.19669067 9.0533667 17.67260742 10.00048828 C19.73187369 11.32221299 21.79002972 12.64566879 23.84716797 13.97070312 C27.96218938 16.61930603 32.08547885 19.25487551 36.20874023 21.890625 C42.53724578 25.93672687 48.86137706 29.98966536 55.18652344 34.04101562 C67.01126165 41.61436653 78.8418762 49.17806767 90.69213867 56.71142578 C98.69991482 61.80407464 106.69224976 66.92068022 114.68359375 72.0390625 C121.44858596 76.37066444 128.22090689 80.69050394 135 85 C143.9061195 90.66165507 152.79678984 96.34714637 161.68359375 102.0390625 C168.44858611 106.37066453 175.22093267 110.69046323 182 115 C195.08143824 123.31691115 208.13315866 131.68014147 221.18652344 140.04101562 C233.01126165 147.61436653 244.8418762 155.17806767 256.69213867 162.71142578 C264.69991482 167.80407464 272.69224976 172.92068022 280.68359375 178.0390625 C287.44858596 182.37066444 294.22090689 186.69050394 301 191 C309.9061195 196.66165507 318.79678984 202.34714637 327.68359375 208.0390625 C334.44858611 212.37066453 341.22093267 216.69046323 348 221 C361.08143824 229.31691115 374.13315866 237.68014147 387.18652344 246.04101562 C399.01126165 253.61436653 410.8418762 261.17806767 422.69213867 268.71142578 C430.69631176 273.80178323 438.68536704 278.91559681 446.67260742 284.0324707 C453.54315539 288.43241028 460.42491431 292.81429357 467.3125 297.1875 C477.59097843 303.71610208 487.80561487 310.34100755 498 317 C496.74816819 320.75549542 495.58090972 321.16103614 492.25 323.1875 C491.25790527 323.79795166 490.26581055 324.40840332 489.24365234 325.03735352 C488.17324707 325.68502686 487.1028418 326.3327002 486 327 C483.78319882 328.36221535 481.56705536 329.7255016 479.3515625 331.08984375 C478.26133789 331.75870605 477.17111328 332.42756836 476.04785156 333.11669922 C472.12016705 335.54365839 468.24038083 338.03788737 464.375 340.5625 C458.10784209 344.64328131 451.81264459 348.67742298 445.5 352.6875 C437.49012178 357.77633499 429.49080985 362.88127256 421.5 368 C413.67443093 373.01227939 405.8425784 378.01437611 398 383 C385.98301647 390.64015259 373.99119644 398.31946045 362 406 C349.11334724 414.25409264 336.22261592 422.50135689 323.30786133 430.71142578 C316.36346608 435.1278038 309.43014773 439.56130415 302.5 444 C293.77919067 449.58559813 285.04834949 455.15504052 276.30859375 460.7109375 C269.36397703 465.12751389 262.43039479 469.56114591 255.5 474 C247.67439704 479.01222668 239.84257859 484.014376 232 489 C219.98301647 496.64015259 207.99119644 504.31946045 196 512 C183.11334724 520.25409264 170.22261592 528.50135689 157.30786133 536.71142578 C150.36346608 541.1278038 143.43014773 545.56130415 136.5 550 C127.77919067 555.58559813 119.04834949 561.15504052 110.30859375 566.7109375 C103.36397703 571.12751389 96.43039479 575.56114591 89.5 580 C81.67439704 585.01222668 73.84257859 590.014376 66 595 C58.22104931 599.94569791 50.45120711 604.90540743 42.6875 609.875 C41.14497559 610.86137451 41.14497559 610.86137451 39.57128906 611.86767578 C34.63653018 615.02466205 29.70553662 618.18716221 24.78620911 621.36813354 C23.05601239 622.48651876 21.32469524 623.60314777 19.59301758 624.71923828 C17.41219703 626.12555139 15.23354082 627.53522821 13.05737305 628.94873047 C12.07422119 629.58182129 11.09106934 630.21491211 10.078125 630.8671875 C9.21606445 631.42519043 8.35400391 631.98319336 7.46582031 632.55810547 C4.98647573 634.00790835 2.76153591 635.19732931 0 636 C-2.74075102 634.62806547 -4.96428032 633.26205258 -7.4375 631.5 C-8.96642135 630.46072774 -10.49642215 629.42304223 -12.02734375 628.38671875 C-12.83671387 627.83161621 -13.64608398 627.27651367 -14.47998047 626.70458984 C-18.7583895 623.81059141 -23.13258547 621.069504 -27.5 618.3125 C-29.3793479 617.11918486 -31.25824466 615.92515895 -33.13671875 614.73046875 C-34.09497559 614.12122559 -35.05323242 613.51198242 -36.04052734 612.88427734 C-41.13659675 609.63964249 -46.22471066 606.3825979 -51.3125 603.125 C-52.35253174 602.45911865 -53.39256348 601.7932373 -54.46411133 601.10717773 C-58.70514209 598.39146723 -62.94582544 595.67521447 -67.18652344 592.95898438 C-79.01126165 585.38563347 -90.8418762 577.82193233 -102.69213867 570.28857422 C-110.69991482 565.19592536 -118.69224976 560.07931978 -126.68359375 554.9609375 C-133.44858596 550.62933556 -140.22090689 546.30949606 -147 542 C-155.9061195 536.33834493 -164.79678984 530.65285363 -173.68359375 524.9609375 C-180.44858611 520.62933547 -187.22093267 516.30953677 -194 512 C-207.08143824 503.68308885 -220.13315866 495.31985853 -233.18652344 486.95898438 C-245.01126165 479.38563347 -256.8418762 471.82193233 -268.69213867 464.28857422 C-276.69991482 459.19592536 -284.69224976 454.07931978 -292.68359375 448.9609375 C-299.44858596 444.62933556 -306.22090689 440.30949606 -313 436 C-321.9061195 430.33834493 -330.79678984 424.65285363 -339.68359375 418.9609375 C-346.44858611 414.62933547 -353.22093267 410.30953677 -360 406 C-373.08143824 397.68308885 -386.13315866 389.31985853 -399.18652344 380.95898438 C-411.01126165 373.38563347 -422.8418762 365.82193233 -434.69213867 358.28857422 C-442.68602585 353.20475823 -450.6647906 348.0974797 -458.6418457 342.98730469 C-466.72362237 337.81183862 -474.81771754 332.6559763 -482.921875 327.515625 C-487.31534302 324.72526974 -491.68465735 321.90985462 -496 319 C-494.88375742 315.65127226 -494.55028196 315.43825901 -491.66796875 313.7578125 C-490.61017212 313.12903198 -490.61017212 313.12903198 -489.53100586 312.48754883 C-488.37097046 311.81308716 -488.37097046 311.81308716 -487.1875 311.125 C-485.5245544 310.13400189 -483.863148 309.14041727 -482.203125 308.14453125 C-481.34009766 307.62713379 -480.47707031 307.10973633 -479.58789062 306.57666016 C-475.4812211 304.07469112 -471.45879305 301.44879389 -467.4375 298.8125 C-451.15338201 288.16180661 -434.72948195 277.72822356 -418.30908203 267.28930664 C-411.36423561 262.87275398 -404.43054714 258.43895166 -397.5 254 C-388.77919067 248.41440187 -380.04834949 242.84495948 -371.30859375 237.2890625 C-364.36397703 232.87248611 -357.43039479 228.43885409 -350.5 224 C-342.67439704 218.98777332 -334.84257859 213.985624 -327 209 C-314.98301647 201.35984741 -302.99119644 193.68053955 -291 186 C-278.11334724 177.74590736 -265.22261592 169.49864311 -252.30786133 161.28857422 C-245.36346608 156.8721962 -238.43014773 152.43869585 -231.5 148 C-222.77919067 142.41440187 -214.04834949 136.84495948 -205.30859375 131.2890625 C-198.36397703 126.87248611 -191.43039479 122.43885409 -184.5 118 C-176.67439704 112.98777332 -168.84257859 107.985624 -161 103 C-148.98301647 95.35984741 -136.99119644 87.68053955 -125 80 C-112.11334724 71.74590736 -99.22261592 63.49864311 -86.30786133 55.28857422 C-79.36346608 50.8721962 -72.43014773 46.43869585 -65.5 42 C-57.67439688 36.98777321 -49.84255334 31.98566391 -42 27 C-33.82623555 21.80274793 -25.66010148 16.59366955 -17.5 11.375 C-16.44296875 10.69953125 -15.3859375 10.0240625 -14.296875 9.328125 C-13.30171875 8.69132812 -12.3065625 8.05453125 -11.28125 7.3984375 C-10.35183594 6.80901367 -9.42242188 6.21958984 -8.46484375 5.61230469 C-6.43267939 4.28302444 -4.52321038 2.88325084 -2.59375 1.4140625 C-1.7378125 0.94742188 -0.881875 0.48078125 0 0 Z " fill="#FECA00" transform="translate(599,102)"/>
<path d="M0 0 C1.11987305 0.14453613 2.23974609 0.28907227 3.39355469 0.43798828 C51.27733611 6.80228834 96.97856876 20.32309383 141 40 C141.79067871 40.34981934 142.58135742 40.69963867 143.39599609 41.06005859 C176.51806571 55.7948047 207.62349555 75.52042605 236 98 C236.83144531 98.6496875 237.66289063 99.299375 238.51953125 99.96875 C241.03599421 101.95264972 243.5224446 103.96768644 246 106 C246.87833496 106.71687988 246.87833496 106.71687988 247.77441406 107.44824219 C249.71304613 109.03797962 251.63891366 110.64210282 253.5625 112.25 C254.18310303 112.75772949 254.80370605 113.26545898 255.44311523 113.78857422 C260.50656197 118.0664478 260.50656197 118.0664478 261 122 C260.19770848 124.89184184 259.3148387 127.58069173 258.25 130.375 C257.93635498 131.20572021 257.62270996 132.03644043 257.29956055 132.89233398 C236.54990102 186.22099081 195.39517665 227.4852444 143.37109375 250.61328125 C90.57264237 272.65535319 32.71825369 272.34701225 -20.23828125 251.34765625 C-69.80928952 230.91967691 -110.95507448 190.02136985 -131.953125 140.76416016 C-150.20669948 96.57966251 -153.73022231 50.51499285 -143 4 C-95.84443492 -3.94017501 -47.53290592 -6.23611493 0 0 Z " fill="#302681" transform="translate(539,363)"/>
<path d="M0 0 C0.60585938 0.32226562 1.21171875 0.64453125 1.8359375 0.9765625 C49.80904001 26.74377477 85.95301654 72.60130918 101.73046875 124.53125 C107.34383251 143.93164475 110.18775822 163.15659497 110.18530273 183.36035156 C110.18748958 185.36545052 110.20572665 187.36999756 110.22460938 189.375 C110.237029 197.77066388 109.54987131 205.74748412 108 214 C103.50637254 211.10637626 99.37991757 207.94898773 95.25 204.5625 C67.66671103 182.26721697 37.02698111 163.52146174 5.13867188 148.04492188 C2.89148728 146.94698237 0.65701375 145.82536258 -1.578125 144.703125 C-47.05577123 122.15072295 -96.01559806 108.69916942 -146 101 C-147.08023438 100.83129395 -148.16046875 100.66258789 -149.2734375 100.48876953 C-155.50285505 99.52936487 -161.73803921 98.71432385 -168 98 C-168.84224121 97.89703613 -169.68448242 97.79407227 -170.55224609 97.68798828 C-200.06189966 94.20103463 -230.69966748 94.99585764 -260.3125 96.875 C-261.54814697 96.95331055 -262.78379395 97.03162109 -264.05688477 97.11230469 C-270.54719727 97.58577868 -276.87668523 98.38342701 -283.27026367 99.60205078 C-286.21421291 100.03122861 -289.02905775 100.06501924 -292 100 C-289.47507082 93.23255101 -286.54089241 86.97078965 -282.875 80.75 C-282.39417969 79.92935059 -281.91335938 79.10870117 -281.41796875 78.26318359 C-253.32196521 30.96640073 -206.52181643 -5.26376503 -153 -19 C-101.46762196 -31.71123952 -46.7992433 -25.02326887 0 0 Z " fill="#302680" transform="translate(700,235)"/>
<path d="M0 0 C1.05654785 0.34401855 2.1130957 0.68803711 3.20166016 1.04248047 C37.4008984 12.26091846 69.9498844 26.81428742 101 45 C101.88880859 45.51739746 102.77761719 46.03479492 103.69335938 46.56787109 C125.99776105 59.58428341 147.20495629 74.3999458 167 91 C167.91910156 91.64066406 168.83820313 92.28132813 169.78515625 92.94140625 C172 95 172 95 172.41015625 97.26953125 C171.30041003 105.38688842 169.27362035 113.14099532 167 121 C166.62323 122.31757462 166.24691178 123.63527853 165.87109375 124.953125 C165.58363281 125.95859375 165.29617188 126.9640625 165 128 C162.27091074 126.73582209 160.11778711 125.39918202 157.890625 123.3828125 C157.30949951 122.86460937 156.72837402 122.34640625 156.12963867 121.8125 C155.50935791 121.255625 154.88907715 120.69875 154.25 120.125 C147.13972068 113.85967004 139.75400566 108.11007007 132.09765625 102.53125 C129.94275458 100.95821191 127.79929719 99.37039016 125.65625 97.78125 C103.86103574 81.71405004 80.49672785 67.7226958 56.08007812 56.00537109 C53.79941761 54.90305184 51.53291319 53.77408441 49.265625 52.64453125 C35.50561491 45.85879104 21.39525465 40.28461458 7 35 C6.03868164 34.64164062 5.07736328 34.28328125 4.08691406 33.9140625 C-30.96826487 20.89531542 -67.65480993 13.0837693 -104.79629517 9.22912598 C-106.34935779 9.06764927 -107.90204211 8.90251346 -109.45443726 8.73474121 C-123.64435981 7.21775625 -137.67146296 6.67183235 -151.9375 6.75 C-152.95470123 6.75310181 -153.97190247 6.75620361 -155.01992798 6.75939941 C-181.12380111 6.85216607 -206.67272993 8.48113973 -232.4675293 12.66455078 C-235 13 -235 13 -239 13 C-237.73304156 6.76978507 -236.08922444 0.77401721 -234.0625 -5.25 C-233.68448242 -6.41402344 -233.68448242 -6.41402344 -233.29882812 -7.6015625 C-230.4554662 -16.12437625 -230.4554662 -16.12437625 -228 -19 C-225.45369085 -19.88079876 -223.44484923 -20.34293296 -220.8125 -20.6875 C-220.0275415 -20.8006958 -219.24258301 -20.9138916 -218.43383789 -21.03051758 C-145.84040109 -30.65643049 -69.41704949 -22.77599678 0 0 Z " fill="#F8FAFA" transform="translate(636,354)"/>
<path d="M0 0 C12.41836527 -0.40939666 12.41836527 -0.40939666 17 3 C18.21977329 5.43954658 18.20153813 7.15305849 18.25 9.875 C18.27578125 10.73867188 18.3015625 11.60234375 18.328125 12.4921875 C17.93322688 15.51033741 17.09329196 16.8186724 15 19 C10.09931037 20.63356321 5.14261524 20.05529694 0 20 C0 13.4 0 6.8 0 0 Z " fill="#139C4E" transform="translate(462,335)"/>
<path d="M0 0 C3.57513152 2.95336952 5.74364334 5.12005119 6.375 9.75 C5.85727342 14.23696374 4.30351741 15.97763301 1 19 C-2.5 20.1875 -2.5 20.1875 -6 20 C-8.678348 17.84567661 -10.46254419 16.07491161 -12 13 C-12.68839635 6.00130378 -12.68839635 6.00130378 -9.9375 2 C-6.22192774 -0.52975133 -4.4117517 -0.7878128 0 0 Z " fill="#199E52" transform="translate(423,339)"/>
<path d="M0 0 C2.5 1.4375 2.5 1.4375 4 4 C4.83633058 8.66951239 4.66036353 11.94341836 2.125 16 C-0.58774518 18.55317193 -1.57228745 18.94350966 -5.3125 19.4375 C-9 19 -9 19 -11.9375 16.375 C-14.20260313 12.6684676 -14.79355757 11.23230703 -14 7 C-10.33509387 0.5253325 -7.42972298 -0.9984608 0 0 Z " fill="#0F9A4B" transform="translate(658,367)"/>
<path d="M0 0 C2.875 1.4375 2.875 1.4375 5 4 C5.99542741 8.63955731 5.64286036 11.97142343 3.125 16 C0.39737017 18.56718101 -0.5418575 18.94813481 -4.3125 19.375 C-8 19 -8 19 -10.9375 16.9375 C-13 14 -13 14 -13.625 10.5625 C-12.80612961 5.89493875 -11.32246207 4.32246207 -8 1 C-5.14675563 -0.42662219 -3.16545451 -0.31033868 0 0 Z " fill="#0F9A4B" transform="translate(792,443)"/>
<path d="M0 0 C10.95854922 2.06994819 10.95854922 2.06994819 15 5 C16.0625 8.5 16.0625 8.5 16 12 C15.52820313 12.47050781 15.05640625 12.94101562 14.5703125 13.42578125 C12.57344616 15.42761492 12.33096112 16.93566788 11.8125 19.6875 C11.57466797 20.89986328 11.57466797 20.89986328 11.33203125 22.13671875 C11.16767578 23.05904297 11.16767578 23.05904297 11 24 C9.68 23.67 8.36 23.34 7 23 C7.33 20.36 7.66 17.72 8 15 C5.36 14.67 2.72 14.34 0 14 C-0.66 15.98 -1.32 17.96 -2 20 C-2.99 19.67 -3.98 19.34 -5 19 C-4.48378772 12.16018724 -2.51409031 6.36123316 0 0 Z " fill="#199E52" transform="translate(623,356)"/>
<path d="M0 0 C1.2684375 -0.03867187 1.2684375 -0.03867187 2.5625 -0.078125 C5.52952707 0.32128249 6.87118465 1.16989896 9 3.25 C9.38362382 6.85606389 8.90005775 9.77834866 8 13.25 C8.33 13.58 8.66 13.91 9 14.25 C9.04080783 16.24958364 9.04254356 18.25045254 9 20.25 C7.68 20.25 6.36 20.25 5 20.25 C4.67 18.27 4.34 16.29 4 14.25 C1.36 13.92 -1.28 13.59 -4 13.25 C-4 15.89 -4 18.53 -4 21.25 C-5.32 21.25 -6.64 21.25 -8 21.25 C-8.33 14.65 -8.66 8.05 -9 1.25 C-5.7506307 0.43765768 -3.29177036 0.06021531 0 0 Z " fill="#149C4F" transform="translate(445,335.75)"/>
<path d="M0 0 C3.63847392 0.55976522 6.17681382 1.48248846 9.25 3.5 C9.93578125 3.9434375 10.6215625 4.386875 11.328125 4.84375 C13 6 13 6 14 7 C14.4664311 12.3639576 14.4664311 12.3639576 12.625 14.875 C11 16 11 16 9 16 C8.855625 16.94875 8.71125 17.8975 8.5625 18.875 C8 22 8 22 7 24 C6.01 23.67 5.02 23.34 4 23 C4.33 20.36 4.66 17.72 5 15 C2.69 14.34 0.38 13.68 -2 13 C-3.485 15.475 -3.485 15.475 -5 18 C-5.99 17.67 -6.98 17.34 -8 17 C-6.3341708 10.83643195 -3.12194714 5.51740344 0 0 Z " fill="#0D9949" transform="translate(697,385)"/>
<path d="M0 0 C1.65 0 3.3 0 5 0 C6.13764351 4.26616316 7 7.56486311 7 12 C7.66 12 8.32 12 9 12 C9.20496094 11.28972656 9.40992188 10.57945312 9.62109375 9.84765625 C9.89050781 8.92855469 10.15992188 8.00945312 10.4375 7.0625 C10.70433594 6.14597656 10.97117187 5.22945313 11.24609375 4.28515625 C12 2 12 2 13 1 C14.65 1 16.3 1 18 1 C17.67 7.6 17.34 14.2 17 21 C15.68 21 14.36 21 13 21 C13 17.7 13 14.4 13 11 C11.68 14.3 10.36 17.6 9 21 C7.68 20.67 6.36 20.34 5 20 C4.67 18.35 4.34 16.7 4 15 C3.67 15 3.34 15 3 15 C2.67 16.65 2.34 18.3 2 20 C1.01 20 0.02 20 -1 20 C-1.02722517 17.79173622 -1.04649729 15.58337362 -1.0625 13.375 C-1.07410156 12.14523437 -1.08570313 10.91546875 -1.09765625 9.6484375 C-1.00863924 6.32276209 -0.63686087 3.25952412 0 0 Z " fill="#179E51" transform="translate(515,336)"/>
<path d="M0 0 C5.3490142 0.37694395 9.81185777 1.17744 14.25 4.25 C16 7 16 7 16 10.1875 C15 13 15 13 12 15 C9.58984375 15.01171875 9.58984375 15.01171875 6.9375 14.6875 C6.05964844 14.58824219 5.18179688 14.48898437 4.27734375 14.38671875 C2 14 2 14 0 13 C-0.66 15.31 -1.32 17.62 -2 20 C-2.99 20 -3.98 20 -5 20 C-3.4375 3.4375 -3.4375 3.4375 0 0 Z " fill="#149C4F" transform="translate(598,349)"/>
<path d="M0 0 C5.94 0 11.88 0 18 0 C18 1.32 18 2.64 18 4 C13.38 4 8.76 4 4 4 C4 5.32 4 6.64 4 8 C7.63 8 11.26 8 15 8 C15 9.32 15 10.64 15 12 C11.37 12 7.74 12 4 12 C4 13.65 4 15.3 4 17 C8.62 17 13.24 17 18 17 C18 17.99 18 18.98 18 20 C12.06 20 6.12 20 0 20 C0 13.4 0 6.8 0 0 Z " fill="#189E52" transform="translate(488,335)"/>
<path d="M0 0 C3.63514696 1.3689112 6.95588903 2.9832065 10.3125 4.9375 C11.19550781 5.44152344 12.07851563 5.94554687 12.98828125 6.46484375 C13.98408203 7.22474609 13.98408203 7.22474609 15 8 C15 8.99 15 9.98 15 11 C10.14036821 10.39254603 6.2594482 8.27241033 2 6 C1.01 7.485 1.01 7.485 0 9 C0.721875 9.268125 1.44375 9.53625 2.1875 9.8125 C4.97590126 10.98982498 7.44095724 12.39145884 10 14 C9.67 14.99 9.34 15.98 9 17 C8.29875 16.71125 7.5975 16.4225 6.875 16.125 C3.94547497 14.97866412 0.99078347 13.97374346 -2 13 C-2.33 13.99 -2.66 14.98 -3 16 C0.63 17.98 4.26 19.96 8 22 C7.67 23.32 7.34 24.64 7 26 C3.20950293 24.57250019 -0.27122456 22.83763458 -3.8125 20.875 C-4.78832031 20.33617187 -5.76414062 19.79734375 -6.76953125 19.2421875 C-7.50558594 18.83226562 -8.24164062 18.42234375 -9 18 C-7.45614871 13.85967154 -5.48971062 10.06446947 -3.375 6.1875 C-3.05015625 5.59001953 -2.7253125 4.99253906 -2.390625 4.37695312 C-1.59620849 2.91662865 -0.79844624 1.45812509 0 0 Z " fill="#149C4E" transform="translate(720,396)"/>
<path d="M0 0 C2.56451382 1.44149143 3.93487386 2.78376707 6 5 C6.375 7.8125 6.375 7.8125 6 10 C4.68 9.67 3.36 9.34 2 9 C1.67 7.35 1.34 5.7 1 4 C-1.97 3.505 -1.97 3.505 -5 3 C-3.43401997 5.74046506 -1.89729116 8.11738153 0.1875 10.5 C2 13 2 13 2.4375 15.6875 C2.2209375 16.8321875 2.2209375 16.8321875 2 18 C-1.57470457 20.38313638 -2.78553535 20.64837918 -7 20 C-9.79361244 18.37319758 -12.01329138 16.55680762 -14 14 C-14.4375 10.625 -14.4375 10.625 -14 8 C-11.08220156 9.10675113 -10.11079676 9.8107222 -8.5 12.5625 C-7.24332983 15.16513821 -7.24332983 15.16513821 -4.8125 15.8125 C-3.9153125 15.9053125 -3.9153125 15.9053125 -3 16 C-4.57970395 13.23551809 -6.0814879 10.91172144 -8.25 8.5625 C-10 6 -10 6 -9.875 2.75 C-9.441875 1.38875 -9.441875 1.38875 -9 0 C-5.77186065 -1.61406968 -3.45147544 -0.80534427 0 0 Z " fill="#129B4D" transform="translate(750,413)"/>
<path d="M0 0 C3.78139191 0.08594073 6.36928922 0.97951341 9.375 3.1875 C12 6 12 6 12.375 9.3125 C12.25125 10.199375 12.1275 11.08625 12 12 C10.125 11.8125 10.125 11.8125 8 11 C7.33333333 9.33333333 6.66666667 7.66666667 6 6 C3.95894361 5.11306697 3.95894361 5.11306697 2 5 C3.13225208 7.54756717 4.27311263 9.31327626 6.125 11.4375 C8 14 8 14 8.4375 16.625 C8 19 8 19 6.875 20.875 C5 22 5 22 2.1875 22 C-1.86873903 20.72745442 -4.0673588 19.06904311 -7 16 C-7.875 12.6875 -7.875 12.6875 -8 10 C-7.01 10 -6.02 10 -5 10 C-4.360625 10.969375 -3.72125 11.93875 -3.0625 12.9375 C-1.34877692 16.11068979 -1.34877692 16.11068979 1.25 16.875 C1.8275 16.91625 2.405 16.9575 3 17 C1.80646883 14.4140158 0.52979064 12.368576 -1.1875 10.0625 C-3 7 -3 7 -2.875 4.25 C-2 2 -2 2 0 0 Z " fill="#0F9A4B" transform="translate(765,426)"/>
<path d="M0 0 C3.87124422 0.95083191 5.30565239 1.62513944 7.5625 4.875 C7.8125 7.625 7.8125 7.625 7.5625 9.875 C4.16335025 8.74195008 3.50995549 7.74981525 1.5625 4.875 C-0.4175 5.205 -2.3975 5.535 -4.4375 5.875 C-5.47964691 10.49007774 -5.47964691 10.49007774 -4.4375 14.875 C-2.7875 14.875 -1.1375 14.875 0.5625 14.875 C0.2325 13.555 -0.0975 12.235 -0.4375 10.875 C5.3125 11.75 5.3125 11.75 7.5625 12.875 C6.36350302 15.9581351 5.08549523 18.93779492 3.5625 21.875 C2.5725 21.875 1.5825 21.875 0.5625 21.875 C0.5625 21.215 0.5625 20.555 0.5625 19.875 C-0.51 19.813125 -1.5825 19.75125 -2.6875 19.6875 C-6.4375 18.875 -6.4375 18.875 -8.875 16.6875 C-10.75200908 13.30888366 -11.05959008 11.68530177 -10.4375 7.875 C-7.76313909 3.07959422 -5.86041257 -0.21310591 0 0 Z " fill="#149C4F" transform="translate(678.4375,376.125)"/>
<path d="M0 0 C5.00890086 0.61512818 10.00632136 1.2717552 15 2 C15 3.32 15 4.64 15 6 C13.56208484 5.85831863 12.1246763 5.71148957 10.6875 5.5625 C9.88699219 5.48128906 9.08648438 5.40007812 8.26171875 5.31640625 C6 5 6 5 3 4 C3.33 4.99 3.66 5.98 4 7 C6.64 7.33 9.28 7.66 12 8 C12 9.32 12 10.64 12 12 C8.7 11.67 5.4 11.34 2 11 C2 12.32 2 13.64 2 15 C2.62648438 15.06058594 3.25296875 15.12117188 3.8984375 15.18359375 C4.71570313 15.26738281 5.53296875 15.35117187 6.375 15.4375 C7.59316406 15.55931641 7.59316406 15.55931641 8.8359375 15.68359375 C11 16 11 16 13 17 C13 17.99 13 18.98 13 20 C11.06215735 19.85879286 9.12473045 19.71187127 7.1875 19.5625 C6.10855469 19.48128906 5.02960937 19.40007812 3.91796875 19.31640625 C1 19 1 19 -2 18 C-1.03644647 5.33029613 -1.03644647 5.33029613 0 0 Z " fill="#189E52" transform="translate(557,343)"/>
<path d="M0 0 C7.35678392 -0.36180905 7.35678392 -0.36180905 10 1.125 C11.47901666 3.89815624 11.38601984 5.91184125 11 9 C10 10.875 10 10.875 8 12 C5.28121737 12.24131207 2.7407889 12.1347929 0 12 C0 8.04 0 4.08 0 0 Z " fill="#F9FCFA" transform="translate(466,339)"/>
<path d="M0 0 C2.375 0.875 2.375 0.875 4.375 2.875 C3.91346154 9.33653846 3.91346154 9.33653846 1.375 11.875 C-1.625 12.125 -1.625 12.125 -4.625 11.875 C-6.625 9.875 -6.625 9.875 -7 7 C-6.625 3.875 -6.625 3.875 -4.9375 1.4375 C-2.625 -0.125 -2.625 -0.125 0 0 Z " fill="#F0F9F4" transform="translate(654.625,370.125)"/>
<path d="M0 0 C0.66 0 1.32 0 2 0 C2.33 1.65 2.66 3.3 3 5 C4.98 5 6.96 5 9 5 C9 5.66 9 6.32 9 7 C8.01 7.66 7.02 8.32 6 9 C5.7497843 12.08365871 5.7497843 12.08365871 6 15 C5.0925 14.62875 4.185 14.2575 3.25 13.875 C0.11902985 12.69640701 0.11902985 12.69640701 -2.375 13.875 C-2.91125 14.24625 -3.4475 14.6175 -4 15 C-3.67 12.69 -3.34 10.38 -3 8 C-4.32 7.67 -5.64 7.34 -7 7 C-7 6.34 -7 5.68 -7 5 C-5.02 5 -3.04 5 -1 5 C-0.67 3.35 -0.34 1.7 0 0 Z " fill="#DFDEEC" transform="translate(599,506)"/>
<path d="M0 0 C0.66 0.66 1.32 1.32 2 2 C1.8125 5.5 1.8125 5.5 1 9 C-2.44107266 11.29404844 -3.96839809 11.26293056 -8 11 C-9 10 -9 10 -9.25 6.625 C-9 3 -9 3 -7.875 1.0625 C-5.15050101 -0.48138276 -3.07108055 -0.3267107 0 0 Z " fill="#F3FAF6" transform="translate(792,447)"/>
<path d="M0 0 C2 2 2 2 2 5 C4.31 5 6.62 5 9 5 C8.319375 5.53625 7.63875 6.0725 6.9375 6.625 C4.61740673 8.91162152 4.61740673 8.91162152 5.25 12.25 C5.4975 13.1575 5.745 14.065 6 15 C5.0925 14.62875 4.185 14.2575 3.25 13.875 C0.11902985 12.69640701 0.11902985 12.69640701 -2.375 13.875 C-2.91125 14.24625 -3.4475 14.6175 -4 15 C-3.9175 14.0925 -3.835 13.185 -3.75 12.25 C-3.68975201 8.89958592 -3.68975201 8.89958592 -6 6.625 C-6.66 6.08875 -7.32 5.5525 -8 5 C-5.69 5 -3.38 5 -1 5 C-0.67 3.35 -0.34 1.7 0 0 Z " fill="#E5E4EF" transform="translate(428,374)"/>
<path d="M0 0 C2 3 2 3 2 6 C3.98 6 5.96 6 8 6 C7.505 6.350625 7.01 6.70125 6.5 7.0625 C4.26936034 9.94374289 4.80019379 12.47009026 5 16 C4.01 15.34 3.02 14.68 2 14 C-0.63434254 14.32126128 -2.62710097 14.81355048 -5 16 C-4.9071875 14.3603125 -4.9071875 14.3603125 -4.8125 12.6875 C-4.64402086 9.07873917 -4.64402086 9.07873917 -6.5 7.0625 C-6.995 6.711875 -7.49 6.36125 -8 6 C-6.02 6 -4.04 6 -2 6 C-1.34 4.02 -0.68 2.04 0 0 Z " fill="#E9E8F1" transform="translate(665,346)"/>
<path d="M0 0 C2.5625 0.3125 2.5625 0.3125 4.375 1.4375 C6.11448782 4.18405972 5.96019128 6.13096974 5.5625 9.3125 C4.375 11.25 4.375 11.25 2.5625 12.3125 C-0.77942692 12.06796876 -2.04293557 11.70706443 -4.4375 9.3125 C-4.6875 5.8125 -4.6875 5.8125 -4.4375 2.3125 C-2.4375 0.3125 -2.4375 0.3125 0 0 Z " fill="#F7FCF9" transform="translate(419.4375,342.6875)"/>
<path d="M0 0 C2 3 2 3 2 6 C3.98 6 5.96 6 8 6 C7.505 6.37125 7.01 6.7425 6.5 7.125 C4.40244486 9.74694393 4.78256165 11.73842472 5 15 C3.906875 14.79375 2.81375 14.5875 1.6875 14.375 C-2.0838401 13.59653475 -2.0838401 13.59653475 -5 16 C-4.9071875 14.3603125 -4.9071875 14.3603125 -4.8125 12.6875 C-4.64402086 9.07873917 -4.64402086 9.07873917 -6.5 7.0625 C-6.995 6.711875 -7.49 6.36125 -8 6 C-6.02 6 -4.04 6 -2 6 C-1.34 4.02 -0.68 2.04 0 0 Z " fill="#EBEAF3" transform="translate(747,485)"/>
<path d="M0 0 C2 3 2 3 2 6 C3.98 6 5.96 6 8 6 C7.505 6.37125 7.01 6.7425 6.5 7.125 C4.40244486 9.74694393 4.78256165 11.73842472 5 15 C4.0925 14.608125 3.185 14.21625 2.25 13.8125 C-0.96052929 12.60932055 -0.96052929 12.60932055 -3.375 14.375 C-3.91125 14.91125 -4.4475 15.4475 -5 16 C-4.34 13.69 -3.68 11.38 -3 9 C-4.32 8.34 -5.64 7.68 -7 7 C-7 6.67 -7 6.34 -7 6 C-5.35 6 -3.7 6 -2 6 C-1.34 4.02 -0.68 2.04 0 0 Z " fill="#EFEEF5" transform="translate(447,462)"/>
<path d="M0 0 C0.66 0.33 1.32 0.66 2 1 C2.625 3.0625 2.625 3.0625 3 5 C4.65 5.33 6.3 5.66 8 6 C7.484375 6.350625 6.96875 6.70125 6.4375 7.0625 C4.59853617 9.09468727 4.59853617 9.09468727 5.3125 12.6875 C5.6528125 14.3271875 5.6528125 14.3271875 6 16 C5.46375 15.46375 4.9275 14.9275 4.375 14.375 C1.96052929 12.60932055 1.96052929 12.60932055 -1.25 13.8125 C-2.1575 14.204375 -3.065 14.59625 -4 15 C-3.9071875 13.6078125 -3.9071875 13.6078125 -3.8125 12.1875 C-3.69105736 9.01604897 -3.69105736 9.01604897 -5.5 7.125 C-5.995 6.75375 -6.49 6.3825 -7 6 C-5.02 6 -3.04 6 -1 6 C-0.67 4.02 -0.34 2.04 0 0 Z " fill="#F0EFF5" transform="translate(515,523)"/>
<path d="M0 0 C2 3 2 3 2 5 C3.65 5 5.3 5 7 5 C6.2265625 5.86625 6.2265625 5.86625 5.4375 6.75 C3.73494807 8.87827523 3.73494807 8.87827523 4.3125 11.25 C4.539375 11.8275 4.76625 12.405 5 13 C4.071875 12.835 3.14375 12.67 2.1875 12.5 C-0.95621353 11.92251612 -0.95621353 11.92251612 -4 12 C-3.67 10.35 -3.34 8.7 -3 7 C-3.99 6.67 -4.98 6.34 -6 6 C-6 5.67 -6 5.34 -6 5 C-4.35 5 -2.7 5 -1 5 C-0.67 3.35 -0.34 1.7 0 0 Z " fill="#E7E6F0" transform="translate(421,482)"/>
<path d="M0 0 C0.66 0 1.32 0 2 0 C2 1.32 2 2.64 2 4 C3.98 4 5.96 4 8 4 C7.505 4.391875 7.01 4.78375 6.5 5.1875 C4.54406857 7.55091715 4.75792027 9.01435003 5 12 C4.236875 11.814375 3.47375 11.62875 2.6875 11.4375 C-0.08967375 10.77180827 -0.08967375 10.77180827 -3 12 C-2.938125 11.236875 -2.87625 10.47375 -2.8125 9.6875 C-2.74101915 6.95474688 -2.74101915 6.95474688 -4.5 5.1875 C-4.995 4.795625 -5.49 4.40375 -6 4 C-4.02 4 -2.04 4 0 4 C0 2.68 0 1.36 0 0 Z " fill="#E6E5F0" transform="translate(599,447)"/>
<path d="M0 0 C0.66 1.32 1.32 2.64 2 4 C3.65 4 5.3 4 7 4 C6.505 4.391875 6.01 4.78375 5.5 5.1875 C3.54406857 7.55091715 3.75792027 9.01435003 4 12 C3.236875 11.814375 2.47375 11.62875 1.6875 11.4375 C-1.08967375 10.77180827 -1.08967375 10.77180827 -4 12 C-3.95875 11.236875 -3.9175 10.47375 -3.875 9.6875 C-3.77919176 6.77281584 -3.77919176 6.77281584 -6 4 C-4.35 4 -2.7 4 -1 4 C-0.67 2.68 -0.34 1.36 0 0 Z " fill="#E8E7F1" transform="translate(624,466)"/>
<path d="M0 0 C0.66 0 1.32 0 2 0 C2 1.32 2 2.64 2 4 C3.98 4 5.96 4 8 4 C7.505 4.391875 7.01 4.78375 6.5 5.1875 C4.54406857 7.55091715 4.75792027 9.01435003 5 12 C4.236875 11.814375 3.47375 11.62875 2.6875 11.4375 C-0.08967375 10.77180827 -0.08967375 10.77180827 -3 12 C-2.938125 11.236875 -2.87625 10.47375 -2.8125 9.6875 C-2.74101915 6.95474688 -2.74101915 6.95474688 -4.5 5.1875 C-4.995 4.795625 -5.49 4.40375 -6 4 C-4.02 4 -2.04 4 0 4 C0 2.68 0 1.36 0 0 Z " fill="#E9E7F1" transform="translate(519,422)"/>
<path d="M0 0 C0.66 0.33 1.32 0.66 2 1 C2 2.32 2 3.64 2 5 C3.65 5 5.3 5 7 5 C6.01 6.485 6.01 6.485 5 8 C4.83286431 10.62531524 4.83286431 10.62531524 5 13 C4.05125 12.814375 3.1025 12.62875 2.125 12.4375 C-0.89868793 11.71313368 -0.89868793 11.71313368 -3 13 C-2.938125 12.236875 -2.87625 11.47375 -2.8125 10.6875 C-2.74101915 7.95474688 -2.74101915 7.95474688 -4.5 6.1875 C-4.995 5.795625 -5.49 5.40375 -6 5 C-4.35 4.67 -2.7 4.34 -1 4 C-0.67 2.68 -0.34 1.36 0 0 Z " fill="#EBEAF2" transform="translate(662,554)"/>
<path d="M0 0 C2 2 2 2 2 5 C3.65 5 5.3 5 7 5 C6.67 5.66 6.34 6.32 6 7 C5.34 7 4.68 7 4 7 C4.33 8.98 4.66 10.96 5 13 C4.071875 12.835 3.14375 12.67 2.1875 12.5 C-0.95621353 11.92251612 -0.95621353 11.92251612 -4 12 C-3.773125 11.401875 -3.54625 10.80375 -3.3125 10.1875 C-3.209375 9.465625 -3.10625 8.74375 -3 8 C-4.35444301 6.22809091 -4.35444301 6.22809091 -6 5 C-4.35 5 -2.7 5 -1 5 C-0.67 3.35 -0.34 1.7 0 0 Z " fill="#EAE9F2" transform="translate(755,505)"/>
<path d="M0 0 C0.66 0.33 1.32 0.66 2 1 C2 2.32 2 3.64 2 5 C3.65 5 5.3 5 7 5 C6.01 6.485 6.01 6.485 5 8 C4.83286431 10.62531524 4.83286431 10.62531524 5 13 C4.05125 12.814375 3.1025 12.62875 2.125 12.4375 C-0.89868793 11.71313368 -0.89868793 11.71313368 -3 13 C-2.938125 12.236875 -2.87625 11.47375 -2.8125 10.6875 C-2.74101915 7.95474688 -2.74101915 7.95474688 -4.5 6.1875 C-4.995 5.795625 -5.49 5.40375 -6 5 C-4.35 4.67 -2.7 4.34 -1 4 C-0.67 2.68 -0.34 1.36 0 0 Z " fill="#EBEAF2" transform="translate(490,484)"/>
<path d="M0 0 C2 3 2 3 2 5 C3.65 5 5.3 5 7 5 C6.505 5.391875 6.01 5.78375 5.5 6.1875 C3.54406857 8.55091715 3.75792027 10.01435003 4 13 C3.05125 12.814375 2.1025 12.62875 1.125 12.4375 C-1.89868793 11.71313368 -1.89868793 11.71313368 -4 13 C-3.67 11.02 -3.34 9.04 -3 7 C-3.99 6.67 -4.98 6.34 -6 6 C-6 5.67 -6 5.34 -6 5 C-4.35 5 -2.7 5 -1 5 C-0.67 3.35 -0.34 1.7 0 0 Z " fill="#ECEBF3" transform="translate(705,549)"/>
<path d="M0 0 C0.66 0.33 1.32 0.66 2 1 C2 2.32 2 3.64 2 5 C3.65 5 5.3 5 7 5 C6.67 5.66 6.34 6.32 6 7 C5.34 7 4.68 7 4 7 C4.33 8.98 4.66 10.96 5 13 C4.2575 12.62875 3.515 12.2575 2.75 11.875 C0.05716353 10.70484137 0.05716353 10.70484137 -2.3125 11.875 C-3.1478125 12.431875 -3.1478125 12.431875 -4 13 C-3.79375 12.236875 -3.5875 11.47375 -3.375 10.6875 C-2.66608797 7.78114056 -2.66608797 7.78114056 -5 5 C-3.68 5 -2.36 5 -1 5 C-0.67 3.35 -0.34 1.7 0 0 Z " fill="#ECECF3" transform="translate(742,522)"/>
<path d="M0 0 C2.64 1.32 5.28 2.64 8 4 C8 5.32 8 6.64 8 8 C1.375 7.25 1.375 7.25 -2 5 C-1.34 3.35 -0.68 1.7 0 0 Z " fill="#ECF7F0" transform="translate(699,389)"/>
<path d="M0 0 C7.75 0.875 7.75 0.875 10 2 C9.67 3.32 9.34 4.64 9 6 C5.7 5.67 2.4 5.34 -1 5 C-0.67 3.35 -0.34 1.7 0 0 Z " fill="#E8F5EE" transform="translate(600,354)"/>
<path d="M0 0 C6.625 0.75 6.625 0.75 10 3 C9.67 3.99 9.34 4.98 9 6 C5.7 5.67 2.4 5.34 -1 5 C-0.67 3.35 -0.34 1.7 0 0 Z " fill="#EDF7F2" transform="translate(625,361)"/>
<path d="M0 0 C2.97 0 5.94 0 9 0 C9.33 1.32 9.66 2.64 10 4 C9 5 9 5 6.93359375 5.09765625 C6.10988281 5.08605469 5.28617187 5.07445312 4.4375 5.0625 C3.61121094 5.05347656 2.78492188 5.04445313 1.93359375 5.03515625 C1.29550781 5.02355469 0.65742188 5.01195312 0 5 C0 3.35 0 1.7 0 0 Z " fill="#F8FCF9" transform="translate(440,340)"/>
<path d="M0 0 C0.66 0.66 1.32 1.32 2 2 C3.31747324 2.69748583 4.64914193 3.36959957 6 4 C5 6 4 8 3 10 C2.38125 9.814375 1.7625 9.62875 1.125 9.4375 C-1.04160178 8.76313824 -1.04160178 8.76313824 -3 10 C-2.67 8.35 -2.34 6.7 -2 5 C-2.99 4.67 -3.98 4.34 -5 4 C-4.360625 3.71125 -3.72125 3.4225 -3.0625 3.125 C-0.84793921 2.17176549 -0.84793921 2.17176549 0 0 Z " fill="#DFDEEC" transform="translate(484,507)"/>
<path d="M0 0 C0.66 0.33 1.32 0.66 2 1 C2 1.99 2 2.98 2 4 C2.99 4.33 3.98 4.66 5 5 C4.67 6.65 4.34 8.3 4 10 C3.401875 9.835 2.80375 9.67 2.1875 9.5 C-0.11344336 8.8885876 -0.11344336 8.8885876 -3 9 C-2.67 7.68 -2.34 6.36 -2 5 C-2.99 4.67 -3.98 4.34 -5 4 C-5 3.67 -5 3.34 -5 3 C-3.35 3 -1.7 3 0 3 C0 2.01 0 1.02 0 0 Z " fill="#DEDCEB" transform="translate(704,572)"/>
<path d="M0 0 C0.33 0.99 0.66 1.98 1 3 C2.65 3 4.3 3 6 3 C5.67 3.66 5.34 4.32 5 5 C4.34 5 3.68 5 3 5 C3.33 6.65 3.66 8.3 4 10 C3.21625 9.814375 2.4325 9.62875 1.625 9.4375 C-0.97089775 8.74037734 -0.97089775 8.74037734 -3 10 C-3.33 8.02 -3.66 6.04 -4 4 C-3.01 4 -2.02 4 -1 4 C-0.67 2.68 -0.34 1.36 0 0 Z " fill="#DDDCEA" transform="translate(657,404)"/>
<path d="M0 0 C0.66 0.33 1.32 0.66 2 1 C2 1.99 2 2.98 2 4 C3.32 4.33 4.64 4.66 6 5 C5.01 5.33 4.02 5.66 3 6 C3.33 7.32 3.66 8.64 4 10 C2.02 10 0.04 10 -2 10 C-2.66 8.02 -3.32 6.04 -4 4 C-2.68 4 -1.36 4 0 4 C0 2.68 0 1.36 0 0 Z " fill="#E8E7F1" transform="translate(680,537)"/>
<path d="M0 0 C0.66 0.99 1.32 1.98 2 3 C2.99 3.66 3.98 4.32 5 5 C4.67 6.65 4.34 8.3 4 10 C3.401875 9.814375 2.80375 9.62875 2.1875 9.4375 C-0.16408762 8.77906313 -0.16408762 8.77906313 -3 10 C-3 8.68 -3 7.36 -3 6 C-3.66 5.34 -4.32 4.68 -5 4 C-3.68 4 -2.36 4 -1 4 C-0.67 2.68 -0.34 1.36 0 0 Z " fill="#EAE9F2" transform="translate(646,532)"/>
<path d="M0 0 C0.66 0.99 1.32 1.98 2 3 C2.99 3.66 3.98 4.32 5 5 C4.67 6.65 4.34 8.3 4 10 C3.401875 9.814375 2.80375 9.62875 2.1875 9.4375 C-0.16408762 8.77906313 -0.16408762 8.77906313 -3 10 C-3 8.68 -3 7.36 -3 6 C-3.66 5.34 -4.32 4.68 -5 4 C-3.68 4 -2.36 4 -1 4 C-0.67 2.68 -0.34 1.36 0 0 Z " fill="#EAE9F2" transform="translate(704,530)"/>
<path d="M0 0 C0.66 0.99 1.32 1.98 2 3 C2.99 3.66 3.98 4.32 5 5 C4.67 6.65 4.34 8.3 4 10 C3.401875 9.814375 2.80375 9.62875 2.1875 9.4375 C-0.16408762 8.77906313 -0.16408762 8.77906313 -3 10 C-3 8.68 -3 7.36 -3 6 C-3.66 5.34 -4.32 4.68 -5 4 C-3.68 4 -2.36 4 -1 4 C-0.67 2.68 -0.34 1.36 0 0 Z " fill="#EAE9F2" transform="translate(776,490)"/>
<path d="M0 0 C0.66 0 1.32 0 2 0 C2 0.99 2 1.98 2 3 C3.32 3.33 4.64 3.66 6 4 C5.01 4.33 4.02 4.66 3 5 C3.33 6.32 3.66 7.64 4 9 C3.38125 8.814375 2.7625 8.62875 2.125 8.4375 C-0.04160178 7.76313824 -0.04160178 7.76313824 -2 9 C-2.66 7.02 -3.32 5.04 -4 3 C-2.68 3 -1.36 3 0 3 C0 2.01 0 1.02 0 0 Z " fill="#EBEAF3" transform="translate(725,535)"/>
<path d="M0 0 C0.66 0.33 1.32 0.66 2 1 C2 1.99 2 2.98 2 4 C2.99 4.33 3.98 4.66 5 5 C4.67 6.65 4.34 8.3 4 10 C3.401875 9.835 2.80375 9.67 2.1875 9.5 C-0.11344336 8.8885876 -0.11344336 8.8885876 -3 9 C-2.67 7.68 -2.34 6.36 -2 5 C-2.66 4.67 -3.32 4.34 -4 4 C-2.68 4 -1.36 4 0 4 C0 2.68 0 1.36 0 0 Z " fill="#EAE8F2" transform="translate(578,467)"/>
<path d="M0 0 C0.33 0.66 0.66 1.32 1 2 C1.99 2 2.98 2 4 2 C3.67 3.65 3.34 5.3 3 7 C1.125 6.75 1.125 6.75 -1 6 C-2.25 3.9375 -2.25 3.9375 -3 2 C-2.01 2 -1.02 2 0 2 C0 1.34 0 0.68 0 0 Z " fill="#DAD9E9" transform="translate(467,454)"/>
<path d="M0 0 C0.33 0.99 0.66 1.98 1 3 C1.99 3.33 2.98 3.66 4 4 C3.34 4 2.68 4 2 4 C2.33 4.99 2.66 5.98 3 7 C1.35 7 -0.3 7 -2 7 C-2.33 5.68 -2.66 4.36 -3 3 C-2.01 3 -1.02 3 0 3 C0 2.01 0 1.02 0 0 Z " fill="#DCDAEA" transform="translate(589,483)"/>
</svg>
