<?xml version="1.0" encoding="UTF-8"?>
<svg version="1.1" xmlns="http://www.w3.org/2000/svg" width="50" height="50">
<path d="M0 0 C16.5 0 33 0 50 0 C50 16.5 50 33 50 50 C33.5 50 17 50 0 50 C0 33.5 0 17 0 0 Z " fill="#AB6E84" transform="translate(0,0)"/>
<path d="M0 0 C16.5 0 33 0 50 0 C50 3.96 50 7.92 50 12 C33.5 12 17 12 0 12 C0 8.04 0 4.08 0 0 Z " fill="#FEFDFE" transform="translate(0,38)"/>
<path d="M0 0 C16.5 0 33 0 50 0 C50 3.63 50 7.26 50 11 C33.5 11 17 11 0 11 C0 7.37 0 3.74 0 0 Z " fill="#FDFDFE" transform="translate(0,0)"/>
<path d="M0 0 C6.27 0 12.54 0 19 0 C19 1.65 19 3.3 19 5 C17.35 5.33 15.7 5.66 14 6 C14 7.32 14 8.64 14 10 C11 11 11 11 9 11 C7.37485532 12.45833358 7.37485532 12.45833358 6 14 C6.66 14 7.32 14 8 14 C8.33 13.34 8.66 12.68 9 12 C9 12.99 9 13.98 9 15 C6.03 15 3.06 15 0 15 C0 10.05 0 5.1 0 0 Z " fill="#3E567B" transform="translate(0,11)"/>
<path d="M0 0 C9.9 0 19.8 0 30 0 C30 1.98 30 3.96 30 6 C20.1 6 10.2 6 0 6 C0 4.02 0 2.04 0 0 Z " fill="#D1A1B5" transform="translate(20,13)"/>
<path d="M0 0 C9.9 0 19.8 0 30 0 C30 0.99 30 1.98 30 3 C20.1 3 10.2 3 0 3 C0 2.01 0 1.02 0 0 Z " fill="#E9B4C1" transform="translate(20,21)"/>
<path d="M0 0 C0.99 0.33 1.98 0.66 3 1 C3 2.65 3 4.3 3 6 C0 7 0 7 -2 7 C-3.62514468 8.45833358 -3.62514468 8.45833358 -5 10 C-4.34 10 -3.68 10 -3 10 C-2.67 9.34 -2.34 8.68 -2 8 C-2 8.99 -2 9.98 -2 11 C-4.97 11 -7.94 11 -11 11 C-9.68 10.67 -8.36 10.34 -7 10 C-7.99 9.34 -8.98 8.68 -10 8 C-8.9375 6.0625 -8.9375 6.0625 -7 4 C-3.3125 3.25 -3.3125 3.25 0 3 C0 2.01 0 1.02 0 0 Z " fill="#435477" transform="translate(11,15)"/>
<path d="M0 0 C2.64 0 5.28 0 8 0 C8 1.65 8 3.3 8 5 C4.37673261 6.2077558 3.35853631 5.54311128 0 4 C0 2.68 0 1.36 0 0 Z " fill="#3C5379" transform="translate(11,11)"/>
<path d="M0 0 C0.66 0 1.32 0 2 0 C2.33 2.31 2.66 4.62 3 7 C1.35 7.66 -0.3 8.32 -2 9 C-2.99 7.68 -3.98 6.36 -5 5 C-3.35 5 -1.7 5 0 5 C0 3.35 0 1.7 0 0 Z " fill="#273E64" transform="translate(9,11)"/>
<path d="M0 0 C1.32 0 2.64 0 4 0 C4 0.66 4 1.32 4 2 C3.34 2 2.68 2 2 2 C2 5.3 2 8.6 2 12 C2.66 12 3.32 12 4 12 C4 12.66 4 13.32 4 14 C2.68 14 1.36 14 0 14 C0 9.38 0 4.76 0 0 Z " fill="#1B3057" transform="translate(0,11)"/>
<path d="M0 0 C0.99 0.33 1.98 0.66 3 1 C3 2.65 3 4.3 3 6 C0 7 0 7 -2 7 C-2.99 7.33 -3.98 7.66 -5 8 C-5.66 7.34 -6.32 6.68 -7 6 C-6.34 6 -5.68 6 -5 6 C-4.67 5.34 -4.34 4.68 -4 4 C-1.9375 3.375 -1.9375 3.375 0 3 C0 2.01 0 1.02 0 0 Z " fill="#516D93" transform="translate(11,15)"/>
<path d="M0 0 C3.875 1.75 3.875 1.75 5 4 C2.525 5.485 2.525 5.485 0 7 C0 4.69 0 2.38 0 0 Z " fill="#4F6B93" transform="translate(1,15)"/>
</svg>
